<?xml version="1.0" encoding="UTF-8" standalone="no"?>
<!-- Created with Inkscape (http://www.inkscape.org/) -->
<svg
   xmlns:dc="http://purl.org/dc/elements/1.1/"
   xmlns:cc="http://creativecommons.org/ns#"
   xmlns:rdf="http://www.w3.org/1999/02/22-rdf-syntax-ns#"
   xmlns:svg="http://www.w3.org/2000/svg"
   xmlns="http://www.w3.org/2000/svg"
   xmlns:xlink="http://www.w3.org/1999/xlink"
   xmlns:sodipodi="http://sodipodi.sourceforge.net/DTD/sodipodi-0.dtd"
   xmlns:inkscape="http://www.inkscape.org/namespaces/inkscape"
   width="627.3562"
   height="146.66347"
   id="svg3410"
   sodipodi:version="0.32"
   inkscape:version="0.46"
   version="1.0"
   sodipodi:docname="Specialized_logo.svg"
   inkscape:output_extension="org.inkscape.output.svg.inkscape">
  <defs
     id="defs3412">
    <linearGradient
       id="linearGradient3375">
      <stop
         style="stop-color:#b4202d;stop-opacity:1;"
         offset="0"
         id="stop3377" />
      <stop
         style="stop-color:#4c1015;stop-opacity:1;"
         offset="1"
         id="stop3379" />
    </linearGradient>
    <radialGradient
       inkscape:collect="always"
       xlink:href="#linearGradient3375"
       id="radialGradient3403"
       gradientUnits="userSpaceOnUse"
       gradientTransform="matrix(-0.6751167,3.0607147e-8,-4.6204293e-8,-1.01878,693.80082,648.75734)"
       cx="144.02129"
       cy="440.83496"
       fx="144.02129"
       fy="440.83496"
       r="79.025093" />
    <inkscape:perspective
       sodipodi:type="inkscape:persp3d"
       inkscape:vp_x="0 : 526.18109 : 1"
       inkscape:vp_y="0 : 1000 : 0"
       inkscape:vp_z="744.09448 : 526.18109 : 1"
       inkscape:persp3d-origin="372.04724 : 350.78739 : 1"
       id="perspective3418" />
    <radialGradient
       inkscape:collect="always"
       xlink:href="#linearGradient3375"
       id="radialGradient3541"
       gradientUnits="userSpaceOnUse"
       gradientTransform="matrix(-0.6751167,3.0607147e-8,-4.6204293e-8,-1.01878,693.80082,648.75734)"
       cx="144.02129"
       cy="440.83496"
       fx="144.02129"
       fy="440.83496"
       r="79.025093" />
  </defs>
  <sodipodi:namedview
     id="base"
     pagecolor="#ffffff"
     bordercolor="#666666"
     borderopacity="1.0"
     gridtolerance="10000"
     guidetolerance="10"
     objecttolerance="10"
     inkscape:pageopacity="0.0"
     inkscape:pageshadow="2"
     inkscape:zoom="0.7"
     inkscape:cx="342.33292"
     inkscape:cy="165.77886"
     inkscape:document-units="px"
     inkscape:current-layer="layer1"
     showgrid="false"
     inkscape:window-width="640"
     inkscape:window-height="675"
     inkscape:window-x="292"
     inkscape:window-y="44" />
  <metadata
     id="metadata3415">
    <rdf:RDF>
      <cc:Work
         rdf:about="">
        <dc:format>image/svg+xml</dc:format>
        <dc:type
           rdf:resource="http://purl.org/dc/dcmitype/StillImage" />
      </cc:Work>
    </rdf:RDF>
  </metadata>
  <g
     inkscape:label="Layer 1"
     inkscape:groupmode="layer"
     id="layer1"
     transform="translate(-29.179046,-21.88759)">
    <g
       style="display:inline"
       id="g3526"
       transform="translate(27.107773,-120.4618)">
      <g
         id="g3406">
        <path
           style="fill:#000000;display:inline"
           d="M 42.990991,254.31437 C 46.133732,252.89444 48.302718,249.69835 51.923799,241.15152 C 58.087497,226.60337 58.150342,224.85522 52.699414,219.5755 C 50.784318,217.72056 47.521995,214.76675 45.449809,213.0115 C 40.94194,209.19308 39.899572,207.72522 39.896007,205.19063 C 39.892711,202.84748 43.037844,194.82192 45.04554,192.05038 C 47.756301,188.30828 47.58111,188.34697 61.48617,188.42025 L 73.91571,188.48576 L 75.048871,186.15337 C 75.672117,184.87055 76.182032,183.71212 76.182032,183.57909 C 76.182032,183.44605 67.269577,183.34226 56.376575,183.34843 C 38.254719,183.35871 36.397318,183.43946 34.526675,184.29846 C 33.402235,184.81481 32.086527,185.68286 31.602885,186.22748 C 30.202534,187.80434 23.415735,204.26195 23.133604,206.765 L 22.877538,209.03682 L 27.402143,213.18137 C 39.251734,224.03566 40.018798,224.88732 39.987507,227.15461 C 39.934971,230.96131 32.72091,246.54262 30.265052,248.15368 C 29.142816,248.88987 27.1269,249.03781 16.358101,249.17421 L 3.7636406,249.33374 L 2.9174536,251.10821 C 2.4520536,252.08416 2.0712726,253.46676 2.0712726,254.18065 L 2.0712726,255.47863 L 21.621181,255.30764 C 38.237645,255.16229 41.444163,255.01326 42.990991,254.31437 z M 62.182707,254.89941 L 68.883283,254.89243 L 74.188592,242.81456 C 77.930882,234.29498 79.796577,230.61483 80.521284,230.32308 C 81.08635,230.0956 86.847342,229.20062 93.32348,228.33422 C 107.0209,226.50174 108.04724,226.26079 110.87219,224.21442 C 113.2332,222.5041 115.8708,217.45287 122.47569,201.99268 C 127.30688,190.68422 127.5462,186.76775 123.55475,184.33399 C 122.02005,183.39821 120.85197,183.34153 103.2708,183.34967 L 84.615332,183.35832 L 68.891042,218.9976 C 60.242684,238.5992 53.170218,254.8362 53.174453,255.07982 C 53.178682,255.32344 53.699638,255.38407 54.332135,255.21458 C 54.964637,255.04507 58.497395,254.90324 62.182707,254.89941 z M 83.070135,223.24391 C 83.211475,222.80012 86.631439,214.73206 90.670045,205.31488 L 98.01298,188.19274 L 102.23198,188.04338 C 107.27519,187.86484 108.893,188.59235 108.893,191.03876 C 108.893,191.88834 107.25385,196.65551 105.25045,201.63249 C 98.83246,217.57646 96.8363,221.0316 93.40641,222.1333 C 92.50685,222.42224 89.755369,222.97188 87.291997,223.35473 C 83.245101,223.98367 82.837922,223.97298 83.070135,223.24391 z M 151.42504,252.7183 C 151.90721,251.52464 152.44931,250.14551 152.62971,249.65357 C 152.93621,248.81776 152.16901,248.75912 140.92642,248.75912 C 129.62759,248.75912 128.87667,248.701 128.59211,247.80442 C 128.21266,246.60886 128.31777,246.32749 134.2979,232.53142 L 139.22735,221.15925 L 149.25821,221.15925 L 159.28907,221.15925 L 160.41313,218.84559 C 161.03137,217.57308 161.5372,216.42308 161.5372,216.29005 C 161.5372,216.15701 157.05222,216.04816 151.57058,216.04816 C 146.08894,216.04816 141.60396,215.85737 141.60396,215.62418 C 141.60396,214.88541 151.1713,192.72055 152.10584,191.29425 C 153.9661,188.45513 155.1366,188.21001 167.71631,188.0251 L 179.26204,187.8554 L 180.3596,185.59631 L 181.45715,183.33721 L 162.39757,183.33721 L 143.33799,183.33721 L 140.73829,184.63269 C 139.13028,185.434 137.64531,186.67358 136.84544,187.88225 C 135.14458,190.45243 111.6093,245.50559 110.94588,248.46586 C 110.34634,251.14116 110.84364,252.87746 112.55222,254.07419 C 113.571,254.78777 116.0757,254.89218 132.13439,254.89051 L 150.54836,254.8886 L 151.42504,252.7183 z M 202.13407,252.13044 C 202.57568,250.61135 202.93701,249.2356 202.93701,249.07321 C 202.93701,248.91083 197.61443,248.71623 191.10906,248.64076 C 180.84494,248.52171 179.21192,248.39381 178.75779,247.67335 C 178.35207,247.0297 180.83865,240.7697 189.82243,219.81792 C 196.19581,204.95406 201.86898,192.03949 202.42949,191.11888 C 202.98999,190.19826 204.03844,189.22077 204.75939,188.94666 C 205.48034,188.67256 211.35338,188.44829 217.81059,188.44829 L 229.55098,188.44829 L 230.55504,186.10593 C 231.10726,184.81763 231.55909,183.66763 231.55909,183.55039 C 231.55909,183.05856 193.37682,183.37197 191.55179,183.87879 C 187.74643,184.93555 187.27283,185.83106 173.7279,217.58149 C 159.66222,250.5526 159.43261,251.27143 162.20458,253.65785 L 163.63863,254.89243 L 182.48489,254.89243 L 201.33114,254.89243 L 202.13407,252.13044 z M 239.48127,223.59939 C 246.79013,206.39157 253.61804,190.29301 254.65441,187.82482 L 256.53871,183.33721 L 248.48475,183.33721 L 240.43079,183.33721 L 225.20303,218.47593 C 216.82776,237.80223 209.86204,253.90216 209.72366,254.25354 C 209.52856,254.74894 211.34968,254.89174 217.83225,254.88939 L 226.19245,254.88633 L 239.48127,223.59939 z M 257.48757,240.33005 L 267.08115,225.76768 L 273.6291,225.76346 L 280.17706,225.75923 L 279.88392,227.93144 C 279.61985,229.88839 277.04777,254.13851 277.04777,254.67135 C 277.04777,254.79295 280.59116,254.89243 284.92199,254.89243 L 292.79622,254.89243 L 293.10658,252.46466 C 293.27729,251.12939 294.55663,236.12197 295.94957,219.11482 C 297.3425,202.10768 298.61234,187.10024 298.77142,185.76497 L 299.06066,183.33721 L 291.35103,183.33721 C 282.72819,183.33721 281.9273,183.55959 279.04519,186.7541 C 277.7415,188.19912 235.47104,250.05231 232.93925,254.21966 C 232.6084,254.76423 233.99425,254.89243 240.21225,254.89243 L 247.89398,254.89243 L 257.48757,240.33005 z M 272.6575,219.81666 C 273.016,218.8824 281.60504,204.17956 282.02481,203.78155 C 282.29682,203.52365 282.16174,205.14884 281.07964,215.15373 L 280.48538,220.64814 L 276.4119,220.64814 C 272.85989,220.64814 272.37927,220.5417 272.6575,219.81666 z M 334.31011,252.55007 C 336.00727,248.59073 336.33544,248.75912 326.92267,248.75912 C 322.30735,248.75912 318.16737,248.61952 317.72271,248.44889 C 317.26027,248.27143 316.91425,247.54489 316.91425,246.75137 C 316.91425,245.98836 322.77923,231.49542 329.94752,214.54484 C 337.11582,197.59425 342.9808,183.63236 342.9808,183.51842 C 342.9808,183.40447 339.36043,183.37459 334.93555,183.45201 L 326.8903,183.59276 L 322.8982,192.79272 C 297.12494,252.18809 297.57427,250.95524 300.71504,253.65826 L 302.1491,254.89243 L 317.72758,254.89243 L 333.30605,254.89243 L 334.31011,252.55007 z M 371.13349,219.88148 C 379.26188,200.76601 386.04512,184.71767 386.20734,184.21847 C 386.48269,183.37114 385.96881,183.32022 378.47021,183.45181 L 370.43813,183.59276 L 354.98126,219.25468 L 339.52438,254.9166 L 347.93948,254.77673 L 356.35458,254.63688 L 371.13349,219.88148 z M 410.08948,252.72022 C 410.50784,251.52551 411.01407,250.14551 411.21443,249.65357 C 411.55615,248.81454 410.7063,248.75912 397.49872,248.75912 C 388.73831,248.75912 383.30031,248.56755 383.10533,248.25207 C 382.93297,247.97318 382.98128,247.40669 383.21269,246.99318 C 383.70052,246.12148 403.67659,224.25909 421.43599,205.1605 C 428.18262,197.90512 434.3351,191.14257 435.10814,190.13261 C 436.76796,187.96413 436.91293,185.78087 435.49148,184.35942 C 434.50385,183.37179 433.78778,183.33721 414.32851,183.33721 L 394.18775,183.33721 L 393.37305,185.72824 C 392.92496,187.04331 392.55834,188.30831 392.55834,188.53935 C 392.55834,188.77037 398.17974,188.9594 405.05034,188.9594 C 412.59978,188.9594 417.664,189.15626 417.84983,189.45694 C 418.20671,190.03437 416.46728,191.96253 386.94539,223.7148 C 364.4931,247.86334 362.2452,250.64325 363.41018,252.82004 C 363.70642,253.37356 364.34847,254.05929 364.83696,254.34389 C 365.39745,254.67043 373.76869,254.86708 387.52699,254.87689 L 409.32884,254.89243 L 410.08948,252.72022 z M 459.79727,252.06676 C 460.48457,250.51264 461.04691,249.13264 461.04691,249.00011 C 461.04691,248.86757 455.7851,248.75912 449.35399,248.75912 C 435.90312,248.75912 435.89445,248.7565 437.15584,245.066 C 437.56652,243.86445 440.0384,237.9939 442.6489,232.02031 L 447.39528,221.15925 L 457.44145,221.15925 L 467.48764,221.15925 L 468.6117,218.84559 C 469.22994,217.57308 469.73575,216.42308 469.73575,216.29005 C 469.73575,216.15701 465.25078,216.04816 459.76914,216.04816 C 453.98087,216.04816 449.80252,215.84932 449.80252,215.57385 C 449.80252,214.54792 459.65139,191.98872 460.65794,190.7091 C 462.62676,188.20614 464.14083,187.93719 476.26191,187.93719 L 487.42087,187.93719 L 488.53829,185.63719 L 489.65572,183.33721 L 470.62356,183.34843 C 449.32596,183.36099 449.09711,183.39506 445.90777,187.02752 C 444.06636,189.12477 419.69057,245.6654 419.2673,248.82119 C 419.12561,249.87754 419.16112,251.34518 419.3462,252.08262 C 419.99796,254.67944 421.31125,254.85055 440.75847,254.87243 L 458.54762,254.89243 L 459.79727,252.06676 z M 498.6656,254.38277 C 511.12826,254.38136 511.54384,254.3484 513.18476,253.23132 C 514.11385,252.59883 515.55364,251.23667 516.3843,250.20431 C 517.25088,249.12726 523.01859,236.49297 529.91717,220.56 C 540.32376,196.52504 541.9728,192.36441 542.18553,189.60622 C 542.42447,186.50797 542.38149,186.36995 540.63446,184.6229 L 538.83766,182.8261 L 518.19745,182.8261 L 497.5572,182.8261 L 483.29722,216.17595 C 475.45423,234.51836 468.49102,250.77011 467.82342,252.29096 L 466.60961,255.05613 L 476.22265,254.72017 C 481.50982,254.53539 491.60915,254.38356 498.6656,254.38277 z M 485.79678,247.86469 C 485.95382,247.37275 491.70428,233.86031 498.57558,217.83704 L 511.06887,188.70384 L 517.46682,188.70384 C 524.57395,188.70384 525.14077,188.92754 525.03686,191.69138 C 524.98001,193.20286 518.95625,207.63471 505.70474,238.00763 C 503.74528,242.49879 502.06395,245.56152 500.86476,246.82425 L 499.02723,248.75912 L 492.26924,248.75912 C 486.06502,248.75912 485.53464,248.68584 485.79678,247.86469 z"
           id="path2470"
           sodipodi:nodetypes="cssssscccsssscccssccccccccccssssscccsscccccssssccssscccccsssscccccccsssccccsssssscccssscccccccccccsccccccccscccscccssccccscccccssssscccccccccsccccccccssssssscccssssssccccssscccccsssscccccsssccccsssscccccccccccccsscccc"
           inkscape:export-xdpi="49.720001"
           inkscape:export-ydpi="49.720001" />
        <path
           style="fill:url(#radialGradient3541);fill-opacity:1"
           d="M 598.61872,288.17888 C 598.2536,287.65762 597.95488,287.07469 597.95488,286.88348 C 597.95488,286.14978 595.28622,283.25826 594.60906,283.25826 C 593.80621,283.25826 591.18179,280.24127 590.40449,278.42474 C 590.12314,277.76725 589.30137,276.48089 588.57834,275.56615 C 587.85532,274.65142 586.86514,273.1201 586.37798,272.16326 C 585.89081,271.2064 585.00377,269.89667 584.4068,269.25272 C 581.40343,266.0131 580.94561,264.85756 580.73172,259.9773 C 580.6217,257.46672 580.40869,254.75696 580.25835,253.95561 C 580.04032,252.79336 580.13153,252.44237 580.70922,252.22069 C 581.10755,252.06784 581.78709,252.16364 582.21933,252.43358 C 582.94176,252.88474 582.96567,252.84807 582.51541,251.97946 C 582.24603,251.45976 581.8664,250.75389 581.67181,250.41086 C 580.86388,248.98667 580.86651,248.72308 581.69927,247.66439 C 582.17853,247.05511 582.57065,246.03157 582.57065,245.38985 C 582.57065,244.74813 582.75776,244.10746 582.98644,243.96612 C 583.21513,243.82479 583.40131,243.01854 583.40018,242.17448 C 583.39824,240.7344 584.29535,237.37984 585.1156,235.75991 C 585.31668,235.36282 585.48118,234.75472 585.48118,234.4086 C 585.48118,234.01451 585.86974,233.77927 586.52066,233.77927 C 587.53174,233.77927 587.56013,233.69871 587.56013,230.82982 C 587.56013,228.23004 587.65873,227.85458 588.39171,227.66289 C 589.06487,227.48686 589.22329,227.09575 589.22329,225.60982 C 589.22329,223.53232 589.89393,222.98826 591.5338,223.73544 C 592.4942,224.17303 592.51847,224.15055 592.02702,223.27866 C 591.74273,222.77431 591.24586,222.15109 590.92284,221.89374 C 590.19771,221.316 590.61625,220.05821 591.53363,220.05821 C 592.08876,220.05821 592.15761,219.76635 591.92593,218.39504 C 591.64965,216.75976 591.66598,216.73189 592.90083,216.73189 C 593.79179,216.73189 594.23347,216.97366 594.4208,217.56391 C 594.56605,218.02152 595.00716,218.56841 595.40107,218.77921 C 596.02496,219.11311 596.09606,218.98098 595.9528,217.75387 C 595.86235,216.97912 595.5274,216.12867 595.20846,215.86397 C 594.88951,215.59926 594.62856,214.73663 594.62856,213.947 C 594.62856,212.57737 594.69073,212.51738 595.97988,212.64332 C 597.14382,212.75702 597.30585,212.66046 597.14843,211.94702 C 597.0479,211.49146 596.95434,210.37031 596.94052,209.45556 C 596.91754,207.93303 597.01454,207.78104 598.08787,207.65803 C 599.12729,207.53891 599.24809,207.37377 599.1524,206.20277 C 599.02511,204.64514 599.5516,202.59503 600.0789,202.59503 C 600.28279,202.59503 600.44963,202.32773 600.44963,202.00105 C 600.44963,201.67434 600.69397,201.15981 600.99262,200.85762 C 601.29127,200.55543 601.65715,199.98719 601.80566,199.59486 C 601.96614,199.17096 600.86006,199.75099 599.07977,201.02433 C 597.43199,202.20288 595.52252,203.56071 594.83646,204.04171 C 594.1504,204.52271 592.81686,205.65695 591.87302,206.56224 C 589.52899,208.81051 586.7483,210.91083 586.11577,210.91083 C 585.82819,210.91083 584.02415,212.32671 582.10677,214.05724 C 576.64684,218.98515 575.767,219.10019 571.81474,215.40304 C 570.30005,213.98612 567.86647,211.2668 566.40677,209.36009 C 564.29922,206.60711 563.74451,205.57521 563.71253,204.34814 C 563.6645,202.50392 565.98821,197.41524 567.16631,196.78474 C 567.60435,196.5503 568.02195,195.84389 568.09433,195.21492 C 568.19509,194.33911 568.47608,194.04223 569.29432,193.947 C 570.21068,193.84038 570.33811,193.65485 570.18967,192.64344 C 569.95093,191.01678 570.69823,189.81294 572.384,189.10856 C 573.86287,188.49066 574.3866,187.44518 574.16712,185.54898 C 574.07463,184.74994 574.25789,184.48054 574.96283,184.37922 C 575.46656,184.30683 575.99371,183.88523 576.13428,183.44235 C 576.27484,182.99948 576.56434,182.63712 576.77762,182.63712 C 576.99088,182.63712 577.16539,182.17956 577.16539,181.62033 C 577.16539,180.64698 578.16619,179.80079 580.19151,179.06171 C 580.69448,178.87815 580.84961,178.53605 580.67677,177.99153 C 580.37424,177.03831 581.50043,175.1529 582.37235,175.1529 C 582.7101,175.1529 582.98644,175.0032 582.98644,174.82023 C 582.98644,174.63726 583.92197,173.32657 585.0654,171.90761 C 586.20882,170.48863 587.14434,168.98957 587.14434,168.57636 C 587.14434,167.74425 589.24203,166.00551 590.24593,166.00551 C 590.65018,166.00551 590.88645,165.62604 590.88645,164.97673 C 590.88645,164.26378 591.25393,163.7579 592.08343,163.32893 C 593.42144,162.63703 593.79698,161.93719 593.79698,160.13564 C 593.79698,159.1543 594.46627,158.23906 597.12687,155.58202 C 598.95833,153.75303 600.92528,151.51444 601.4979,150.60737 C 602.0705,149.70029 602.72377,148.95813 602.94958,148.95813 C 603.17539,148.95813 603.36015,148.58824 603.36015,148.13614 C 603.36015,147.68405 603.82791,147.00766 604.39962,146.63305 C 604.97134,146.25846 605.4391,145.68696 605.4391,145.36305 C 605.4391,145.03915 605.71976,144.66644 606.06278,144.53481 C 606.40581,144.40317 606.68647,143.93541 606.68647,143.49533 C 606.68647,142.52762 607.5772,142.12583 608.95559,142.47179 C 610.30616,142.81076 610.80178,144.6753 610.53444,148.41157 C 610.37064,150.70087 610.51388,151.84568 611.20912,153.80386 C 612.52485,157.50971 612.39044,158.78829 610.42828,161.23156 C 608.44646,163.69931 608.30168,163.8985 607.59035,165.13619 C 606.72451,166.64273 602.03376,172.24237 601.6376,172.24237 C 601.44158,172.24237 601.28121,172.56778 601.28121,172.96552 C 601.28121,173.36324 600.81482,174.15844 600.24481,174.73262 C 598.90603,176.08115 596.29172,179.62754 596.29172,180.09506 C 596.29172,180.29377 596.00085,180.69774 595.64533,180.99279 C 595.28982,181.28784 594.83374,181.83794 594.63181,182.21525 C 594.32169,182.79473 594.45435,182.87343 595.48609,182.722 C 596.16397,182.6225 596.70752,182.2862 596.70752,181.96624 C 596.70752,181.64917 596.96526,181.38974 597.28029,181.38974 C 597.59532,181.38974 598.09306,181.10057 598.38638,180.74714 C 598.6797,180.39371 599.16533,180.19879 599.46555,180.314 C 599.76577,180.4292 600.67508,179.89755 601.48622,179.13254 C 602.29736,178.36754 603.56537,177.498 604.30401,177.20023 C 605.04265,176.90247 606.36392,176.0551 607.24015,175.31719 C 609.12234,173.73213 615.65673,170.42067 616.2179,170.7675 C 616.43243,170.90009 616.72549,170.8184 616.86912,170.586 C 617.01277,170.35357 617.63379,170.15746 618.24918,170.15019 C 618.86456,170.14293 619.73126,169.86227 620.17516,169.5265 C 622.00543,168.14217 622.67633,168.64271 625.85324,173.7628 C 629.41247,179.49907 630.15958,182.07878 628.77392,183.8477 C 628.31023,184.43965 627.14143,186.2337 626.17659,187.83448 C 625.21175,189.43528 623.26697,192.61608 621.85486,194.90292 C 614.78085,206.35887 604.45602,227.13635 601.41432,236.037 C 600.15845,239.71196 598.8663,243.13315 598.54289,243.63966 C 598.21948,244.14615 597.95488,245.02385 597.95488,245.59011 C 597.95488,246.15638 597.76778,246.73532 597.53909,246.87664 C 597.3104,247.01799 597.12005,248.38555 597.11609,249.91566 C 597.11212,251.44579 596.82151,254.00746 596.4703,255.60824 C 595.56178,259.74921 595.23226,269.04877 595.84547,273.24246 C 596.29261,276.30047 597.91297,281.11973 598.85659,282.198 C 599.0467,282.41526 599.20225,282.84025 599.20225,283.14244 C 599.20225,283.44463 599.68499,284.42135 600.275,285.31291 C 600.87445,286.21875 601.2872,287.36136 601.21053,287.90269 C 601.02032,289.24545 599.48069,289.40954 598.61872,288.17888 z"
           id="path2561"
           sodipodi:nodetypes="cssssssssssssssssssssssssssssssssssssssssssssssssssssssssssssssssssssssssssssssssssssssssssssssssssssssssssssssssssssc" />
      </g>
      <g
         transform="matrix(5.5236793e-2,0,0,5.5236793e-2,499.06617,231.66519)"
         id="g3522">
        <circle
           style="fill:none;stroke:#000000;stroke-width:20;stroke-opacity:1;display:inline"
           sodipodi:ry="102"
           sodipodi:rx="102"
           sodipodi:cy="209"
           sodipodi:cx="3781"
           class="fil1 str0"
           cx="3781"
           cy="209"
           r="102"
           id="circle3476"
           transform="translate(-3285.0151,228.17928)" />
        <path
           style="fill:#000000;fill-opacity:1;stroke:#000000;stroke-opacity:1;display:inline"
           class="fil0"
           d="M 455.9849,501.17928 L 455.9849,377.17928 L 504.9849,377.17928 C 514.9849,377.17928 521.9849,378.17928 526.9849,381.17928 C 532.9849,383.17928 536.9849,387.17928 539.9849,392.17928 C 542.9849,398.17928 543.9849,404.17928 543.9849,411.17928 C 543.9849,420.17928 541.9849,427.17928 536.9849,433.17928 C 531.9849,439.17928 523.9849,443.17928 512.9849,445.17928 C 516.9849,447.17928 519.9849,449.17928 521.9849,451.17928 C 525.9849,455.17928 529.9849,461.17928 533.9849,467.17928 L 552.9849,501.17928 L 534.9849,501.17928 L 519.9849,475.17928 C 515.9849,468.17928 511.9849,462.17928 509.9849,458.17928 C 506.9849,454.17928 503.9849,452.17928 501.9849,450.17928 C 499.9849,448.17928 497.9849,447.17928 494.9849,447.17928 C 493.9849,446.17928 490.9849,446.17928 486.9849,446.17928 L 469.9849,446.17928 L 469.9849,501.17928 L 455.9849,501.17928 z M 469.9849,432.17928 L 501.9849,432.17928 C 508.9849,432.17928 513.9849,431.17928 517.9849,430.17928 C 520.9849,428.17928 523.9849,426.17928 525.9849,422.17928 C 527.9849,419.17928 528.9849,415.17928 528.9849,411.17928 C 528.9849,405.17928 526.9849,400.17928 522.9849,397.17928 C 519.9849,393.17928 513.9849,391.17928 504.9849,391.17928 L 469.9849,391.17928 L 469.9849,432.17928 z"
           id="path3488" />
      </g>
    </g>
  </g>
</svg>
